<svg width="65" height="65" viewBox="0 0 65 65" fill="none" xmlns="http://www.w3.org/2000/svg">
<path fill-rule="evenodd" clip-rule="evenodd" d="M40 26.875C40 28.8641 39.2098 30.7718 37.8033 32.1783C36.3968 33.5848 34.4891 34.375 32.5 34.375C30.5109 34.375 28.6032 33.5848 27.1967 32.1783C25.7902 30.7718 25 28.8641 25 26.875C25 24.8859 25.7902 22.9782 27.1967 21.5717C28.6032 20.1652 30.5109 19.375 32.5 19.375C34.4891 19.375 36.3968 20.1652 37.8033 21.5717C39.2098 22.9782 40 24.8859 40 26.875ZM36.25 26.875C36.25 27.8696 35.8549 28.8234 35.1516 29.5266C34.4484 30.2299 33.4946 30.625 32.5 30.625C31.5054 30.625 30.5516 30.2299 29.8484 29.5266C29.1451 28.8234 28.75 27.8696 28.75 26.875C28.75 25.8804 29.1451 24.9266 29.8484 24.2233C30.5516 23.5201 31.5054 23.125 32.5 23.125C33.4946 23.125 34.4484 23.5201 35.1516 24.2233C35.8549 24.9266 36.25 25.8804 36.25 26.875Z" fill="white"/>
<path fill-rule="evenodd" clip-rule="evenodd" d="M32.5 11.875C21.1094 11.875 11.875 21.1094 11.875 32.5C11.875 43.8906 21.1094 53.125 32.5 53.125C43.8906 53.125 53.125 43.8906 53.125 32.5C53.125 21.1094 43.8906 11.875 32.5 11.875ZM15.625 32.5C15.625 36.4187 16.9619 40.0262 19.2025 42.8912C20.7765 40.8252 22.8065 39.1509 25.1343 37.9989C27.4621 36.8468 30.0246 36.2483 32.6219 36.25C35.1857 36.247 37.7164 36.8296 40.0209 37.9532C42.3254 39.0769 44.3428 40.7119 45.9194 42.7338C47.544 40.603 48.6378 38.116 49.1104 35.4786C49.583 32.8412 49.4208 30.1291 48.6372 27.5668C47.8535 25.0046 46.471 22.6657 44.604 20.7438C42.737 18.8219 40.4392 17.3722 37.9007 16.5147C35.3622 15.6572 32.656 15.4164 30.006 15.8124C27.356 16.2085 24.8384 17.2298 22.6614 18.792C20.4845 20.3542 18.7109 22.4123 17.4873 24.796C16.2637 27.1797 15.6253 29.8206 15.625 32.5ZM32.5 49.375C28.6261 49.3813 24.869 48.0486 21.865 45.6025C23.074 43.8712 24.6835 42.4576 26.5564 41.4821C28.4293 40.5066 30.5102 39.9982 32.6219 40C34.7072 39.9982 36.7629 40.494 38.6181 41.4462C40.4733 42.3984 42.0745 43.7796 43.2887 45.475C40.2615 48.0006 36.4425 49.3812 32.5 49.375Z" fill="white"/>
</svg>
