<svg width="24" height="19" viewBox="0 0 24 19" fill="none" xmlns="http://www.w3.org/2000/svg">
<g clip-path="url(#clip0_40000044_2196)">
<path d="M8.4 9.5C11.0513 9.5 13.2 7.37363 13.2 4.75C13.2 2.12637 11.0513 0 8.4 0C5.74875 0 3.6 2.12637 3.6 4.75C3.6 7.37363 5.74875 9.5 8.4 9.5ZM11.76 10.6875H11.1337C10.3013 11.066 9.375 11.2812 8.4 11.2812C7.425 11.2812 6.5025 11.066 5.66625 10.6875H5.04C2.2575 10.6875 0 12.9215 0 15.675V17.2188C0 18.2021 0.80625 19 1.8 19H12.1088C12.0188 18.7477 11.9812 18.4805 12.0113 18.2096L12.2663 15.9496L12.3112 15.5377L12.6075 15.2445L15.5063 12.376C14.5875 11.348 13.2563 10.6875 11.76 10.6875ZM13.4588 16.0795L13.2038 18.3432C13.1625 18.7217 13.485 19.0408 13.8638 18.9963L16.1475 18.7439L21.3188 13.6266L18.63 10.9658L13.4588 16.0795ZM23.7375 9.97871L22.3162 8.57227C21.9675 8.22715 21.3975 8.22715 21.0487 8.57227L19.6313 9.975L19.4775 10.1271L22.17 12.7879L23.7375 11.2367C24.0863 10.8879 24.0863 10.3275 23.7375 9.97871Z" fill="#444444"/>
</g>
<defs>
<clipPath id="clip0_40000044_2196">
<rect width="24" height="19" fill="white"/>
</clipPath>
</defs>
</svg>
