<svg width="63" height="63" viewBox="0 0 63 63" fill="none" xmlns="http://www.w3.org/2000/svg">
<g clip-path="url(#clip0_40000044_3007)">
<path d="M55.3845 6.9231H6.92296C6.00491 6.9231 5.12445 7.28779 4.47529 7.93696C3.82612 8.58612 3.46143 9.46658 3.46143 10.3846V51.9231C3.46143 52.8412 3.82612 53.7216 4.47529 54.3708C5.12445 55.0199 6.00491 55.3846 6.92296 55.3846H55.3845C56.3026 55.3846 57.183 55.0199 57.8322 54.3708C58.4813 53.7216 58.846 52.8412 58.846 51.9231V10.3846C58.846 9.46658 58.4813 8.58612 57.8322 7.93696C57.183 7.28779 56.3026 6.9231 55.3845 6.9231ZM15.4383 13.8462C16.4653 13.8462 17.4692 14.1507 18.323 14.7212C19.1769 15.2918 19.8424 16.1027 20.2354 17.0515C20.6284 18.0002 20.7312 19.0442 20.5309 20.0514C20.3305 21.0587 19.836 21.9838 19.1099 22.71C18.3837 23.4362 17.4585 23.9307 16.4513 24.131C15.4441 24.3314 14.4001 24.2285 13.4513 23.8355C12.5026 23.4426 11.6916 22.777 11.1211 21.9232C10.5506 21.0693 10.246 20.0654 10.246 19.0385C10.246 17.6614 10.7931 16.3407 11.7668 15.367C12.7406 14.3932 14.0613 13.8462 15.4383 13.8462ZM10.3845 46.7308V39.6346L20.7691 29.1116C21.0934 28.7892 21.5321 28.6083 21.9893 28.6083C22.4466 28.6083 22.8852 28.7892 23.2095 29.1116L27.6922 33.4904L14.3999 46.7308H10.3845ZM51.923 46.7308H19.298L30.0807 35.9481L39.4268 26.6019C39.7511 26.2796 40.1898 26.0986 40.647 26.0986C41.1042 26.0986 41.5429 26.2796 41.8672 26.6019L51.923 36.6577V46.7308Z" fill="white"/>
</g>
<defs>
<clipPath id="clip0_40000044_3007">
<rect width="62.3077" height="62.3077" fill="white"/>
</clipPath>
</defs>
</svg>
